<svg xmlns="http://www.w3.org/2000/svg" width="18" height="16" viewBox="0 0 18 16">
    <g fill="3ECEFF" fill-rule="nonzero">
        <path d="M13.341 15.074L15.66 2.47H2.93l2.313 12.604h8.1zm.414.926H4.829a.484.484 0 0 1-.484-.384L1.861 2.086c-.052-.283.18-.542.484-.542h13.898c.305 0 .536.26.484.542l-2.489 13.53a.484.484 0 0 1-.483.384z"/>
        <path d="M.69 2.822c-.262 0-.473-.2-.473-.446s.211-.446.472-.446h16.718c.26 0 .473.2.473.446s-.212.446-.473.446H.689z"/>
        <path d="M11.316 0c.091 0 .18.033.246.092l1.948 1.717c.239.21.08.588-.246.588H5.08c-.326 0-.484-.377-.246-.587L6.777.092A.372.372 0 0 1 7.023 0h4.293zm-.142.68H7.166L5.99 1.717h6.362L11.174.679zM8.81 5.744c0-.188.162-.34.361-.34.199 0 .36.152.36.34v7.226c0 .187-.161.34-.36.34-.199 0-.36-.153-.36-.34V5.744zM12.227 5.702a.356.356 0 0 1 .402-.295.344.344 0 0 1 .312.379l-.957 7.226a.356.356 0 0 1-.402.295.344.344 0 0 1-.313-.38l.958-7.225zM5.54 5.786a.344.344 0 0 1 .312-.38.356.356 0 0 1 .402.296l.958 7.226a.344.344 0 0 1-.313.379.356.356 0 0 1-.402-.295L5.54 5.786z"/>
        <path d="M9.063 2.283v13.353H4.896L2.375 2.283z" opacity=".3"/>
    </g>
</svg>
